<?xml version="1.0" encoding="UTF-8" standalone="no"?>
<!DOCTYPE svg PUBLIC "-//W3C//DTD SVG 1.1//EN"
 "http://www.w3.org/Graphics/SVG/1.1/DTD/svg11.dtd">
<!-- Generated by graphviz version 2.38.0 (20140413.2041)
 -->
<!-- Title: CMU462::DynamicScene::MeshFeature Pages: 1 -->
<svg width="135pt" height="106pt"
 viewBox="0.00 0.00 135.00 106.00" xmlns="http://www.w3.org/2000/svg" xmlns:xlink="http://www.w3.org/1999/xlink">
<g id="graph0" class="graph" transform="scale(1 1) rotate(0) translate(4 102)">
<title>CMU462::DynamicScene::MeshFeature</title>
<polygon fill="white" stroke="none" points="-4,4 -4,-102 131,-102 131,4 -4,4"/>
<!-- Node1 -->
<g id="node1" class="node"><title>Node1</title>
<polygon fill="#bfbfbf" stroke="black" points="5,-0.5 5,-30.5 122,-30.5 122,-0.5 5,-0.5"/>
<text text-anchor="start" x="13" y="-18.5" font-family="Calibri" font-size="10.00">CMU462::DynamicScene</text>
<text text-anchor="middle" x="63.5" y="-7.5" font-family="Calibri" font-size="10.00">::MeshFeature</text>
</g>
<!-- Node2 -->
<g id="node2" class="node"><title>Node2</title>
<g id="a_node2"><a xlink:href="class_c_m_u462_1_1_halfedge_element.html" target="_top" xlink:title="HalfedgeElement is the base type for all mesh elements (halfedges, vertices, edges, and faces). ">
<polygon fill="white" stroke="black" points="0,-78.5 0,-97.5 127,-97.5 127,-78.5 0,-78.5"/>
<text text-anchor="middle" x="63.5" y="-85.5" font-family="Calibri" font-size="10.00">CMU462::HalfedgeElement</text>
</a>
</g>
</g>
<!-- Node2&#45;&gt;Node1 -->
<g id="edge1" class="edge"><title>Node2&#45;&gt;Node1</title>
<path fill="none" stroke="#9a32cd" stroke-dasharray="5,2" d="M63.5,-68.2362C63.5,-56.4079 63.5,-41.3829 63.5,-30.5762"/>
<polygon fill="#9a32cd" stroke="#9a32cd" points="60.0001,-68.3553 63.5,-78.3553 67.0001,-68.3554 60.0001,-68.3553"/>
<text text-anchor="middle" x="82" y="-52" font-family="Calibri" font-size="10.00"> element</text>
</g>
</g>
</svg>
