<?xml version="1.0" encoding="UTF-8" standalone="no"?>
<!DOCTYPE svg PUBLIC "-//W3C//DTD SVG 1.1//EN"
 "http://www.w3.org/Graphics/SVG/1.1/DTD/svg11.dtd">
<!-- Generated by graphviz version 2.38.0 (20140413.2041)
 -->
<!-- Title: CMU462::StaticScene::SceneObject Pages: 1 -->
<svg width="234pt" height="106pt"
 viewBox="0.00 0.00 234.00 106.00" xmlns="http://www.w3.org/2000/svg" xmlns:xlink="http://www.w3.org/1999/xlink">
<g id="graph0" class="graph" transform="scale(1 1) rotate(0) translate(4 102)">
<title>CMU462::StaticScene::SceneObject</title>
<polygon fill="white" stroke="none" points="-4,4 -4,-102 230,-102 230,4 -4,4"/>
<!-- Node1 -->
<g id="node1" class="node"><title>Node1</title>
<polygon fill="#bfbfbf" stroke="black" points="61,-67.5 61,-97.5 165,-97.5 165,-67.5 61,-67.5"/>
<text text-anchor="start" x="69" y="-85.5" font-family="Calibri" font-size="10.00">CMU462::StaticScene</text>
<text text-anchor="middle" x="113" y="-74.5" font-family="Calibri" font-size="10.00">::SceneObject</text>
</g>
<!-- Node2 -->
<g id="node2" class="node"><title>Node2</title>
<g id="a_node2"><a xlink:href="class_c_m_u462_1_1_static_scene_1_1_mesh.html" target="_top" xlink:title="A triangle mesh object. ">
<polygon fill="white" stroke="black" points="0,-0.5 0,-30.5 104,-30.5 104,-0.5 0,-0.5"/>
<text text-anchor="start" x="8" y="-18.5" font-family="Calibri" font-size="10.00">CMU462::StaticScene</text>
<text text-anchor="middle" x="52" y="-7.5" font-family="Calibri" font-size="10.00">::Mesh</text>
</a>
</g>
</g>
<!-- Node1&#45;&gt;Node2 -->
<g id="edge1" class="edge"><title>Node1&#45;&gt;Node2</title>
<path fill="none" stroke="midnightblue" d="M92.8458,-60.0243C83.7574,-50.3398 73.2786,-39.1739 65.2103,-30.5765"/>
<polygon fill="midnightblue" stroke="midnightblue" points="90.3686,-62.4992 99.7639,-67.396 95.4729,-57.709 90.3686,-62.4992"/>
</g>
<!-- Node3 -->
<g id="node3" class="node"><title>Node3</title>
<g id="a_node3"><a xlink:href="class_c_m_u462_1_1_static_scene_1_1_sphere_object.html" target="_top" xlink:title="A sphere object. ">
<polygon fill="white" stroke="black" points="122,-0.5 122,-30.5 226,-30.5 226,-0.5 122,-0.5"/>
<text text-anchor="start" x="130" y="-18.5" font-family="Calibri" font-size="10.00">CMU462::StaticScene</text>
<text text-anchor="middle" x="174" y="-7.5" font-family="Calibri" font-size="10.00">::SphereObject</text>
</a>
</g>
</g>
<!-- Node1&#45;&gt;Node3 -->
<g id="edge2" class="edge"><title>Node1&#45;&gt;Node3</title>
<path fill="none" stroke="midnightblue" d="M133.154,-60.0243C142.243,-50.3398 152.721,-39.1739 160.79,-30.5765"/>
<polygon fill="midnightblue" stroke="midnightblue" points="130.527,-57.709 126.236,-67.396 135.631,-62.4992 130.527,-57.709"/>
</g>
</g>
</svg>
