<?xml version="1.0" encoding="UTF-8" standalone="no"?>
<!DOCTYPE svg PUBLIC "-//W3C//DTD SVG 1.1//EN"
 "http://www.w3.org/Graphics/SVG/1.1/DTD/svg11.dtd">
<!-- Generated by graphviz version 2.38.0 (20140413.2041)
 -->
<!-- Title: CMU462::HalfedgeElement Pages: 1 -->
<svg width="298pt" height="84pt"
 viewBox="0.00 0.00 298.00 84.00" xmlns="http://www.w3.org/2000/svg" xmlns:xlink="http://www.w3.org/1999/xlink">
<g id="graph0" class="graph" transform="scale(1 1) rotate(0) translate(4 80)">
<title>CMU462::HalfedgeElement</title>
<polygon fill="white" stroke="none" points="-4,4 -4,-80 294,-80 294,4 -4,4"/>
<!-- Node1 -->
<g id="node1" class="node"><title>Node1</title>
<polygon fill="#bfbfbf" stroke="black" points="77.5,-56.5 77.5,-75.5 204.5,-75.5 204.5,-56.5 77.5,-56.5"/>
<text text-anchor="middle" x="141" y="-63.5" font-family="Calibri" font-size="10.00">CMU462::HalfedgeElement</text>
</g>
<!-- Node2 -->
<g id="node2" class="node"><title>Node2</title>
<g id="a_node2"><a xlink:href="class_c_m_u462_1_1_face.html" target="_top" xlink:title="A Face is a single polygon in the mesh. ">
<polygon fill="white" stroke="black" points="0,-0.5 0,-19.5 76,-19.5 76,-0.5 0,-0.5"/>
<text text-anchor="middle" x="38" y="-7.5" font-family="Calibri" font-size="10.00">CMU462::Face</text>
</a>
</g>
</g>
<!-- Node1&#45;&gt;Node2 -->
<g id="edge1" class="edge"><title>Node1&#45;&gt;Node2</title>
<path fill="none" stroke="midnightblue" d="M115.421,-51.5895C96.3766,-41.6052 70.9356,-28.2672 54.5077,-19.6545"/>
<polygon fill="midnightblue" stroke="midnightblue" points="113.969,-54.7805 124.451,-56.324 117.22,-48.5808 113.969,-54.7805"/>
</g>
<!-- Node3 -->
<g id="node3" class="node"><title>Node3</title>
<g id="a_node3"><a xlink:href="class_c_m_u462_1_1_halfedge.html" target="_top" xlink:title="A Halfedge is the basic &quot;glue&quot; between mesh elements, pointing to its associated vertex, edge, and face, as will as its twin and next halfedges. ">
<polygon fill="white" stroke="black" points="94,-0.5 94,-19.5 188,-19.5 188,-0.5 94,-0.5"/>
<text text-anchor="middle" x="141" y="-7.5" font-family="Calibri" font-size="10.00">CMU462::Halfedge</text>
</a>
</g>
</g>
<!-- Node1&#45;&gt;Node3 -->
<g id="edge2" class="edge"><title>Node1&#45;&gt;Node3</title>
<path fill="none" stroke="midnightblue" d="M141,-45.8045C141,-36.9102 141,-26.7798 141,-19.7511"/>
<polygon fill="midnightblue" stroke="midnightblue" points="137.5,-46.083 141,-56.083 144.5,-46.083 137.5,-46.083"/>
</g>
<!-- Node4 -->
<g id="node4" class="node"><title>Node4</title>
<g id="a_node4"><a xlink:href="class_c_m_u462_1_1_vertex.html" target="_top" xlink:title="A Vertex encodes one of the mesh vertices. ">
<polygon fill="white" stroke="black" points="206,-0.5 206,-19.5 290,-19.5 290,-0.5 206,-0.5"/>
<text text-anchor="middle" x="248" y="-7.5" font-family="Calibri" font-size="10.00">CMU462::Vertex</text>
</a>
</g>
</g>
<!-- Node1&#45;&gt;Node4 -->
<g id="edge3" class="edge"><title>Node1&#45;&gt;Node4</title>
<path fill="none" stroke="midnightblue" d="M167.302,-51.7261C187.115,-41.7271 213.707,-28.3065 230.851,-19.6545"/>
<polygon fill="midnightblue" stroke="midnightblue" points="165.542,-48.6938 158.191,-56.324 168.696,-54.9431 165.542,-48.6938"/>
</g>
</g>
</svg>
