<?xml version="1.0" encoding="UTF-8" standalone="no"?>
<!DOCTYPE svg PUBLIC "-//W3C//DTD SVG 1.1//EN"
 "http://www.w3.org/Graphics/SVG/1.1/DTD/svg11.dtd">
<!-- Generated by graphviz version 2.38.0 (20140413.2041)
 -->
<!-- Title: CMU462::StaticScene::DiffuseBRDF Pages: 1 -->
<svg width="112pt" height="106pt"
 viewBox="0.00 0.00 112.00 106.00" xmlns="http://www.w3.org/2000/svg" xmlns:xlink="http://www.w3.org/1999/xlink">
<g id="graph0" class="graph" transform="scale(1 1) rotate(0) translate(4 102)">
<title>CMU462::StaticScene::DiffuseBRDF</title>
<polygon fill="white" stroke="none" points="-4,4 -4,-102 108,-102 108,4 -4,4"/>
<!-- Node1 -->
<g id="node1" class="node"><title>Node1</title>
<polygon fill="#bfbfbf" stroke="black" points="0,-0.5 0,-30.5 104,-30.5 104,-0.5 0,-0.5"/>
<text text-anchor="start" x="8" y="-18.5" font-family="Calibri" font-size="10.00">CMU462::StaticScene</text>
<text text-anchor="middle" x="52" y="-7.5" font-family="Calibri" font-size="10.00">::DiffuseBRDF</text>
</g>
<!-- Node2 -->
<g id="node2" class="node"><title>Node2</title>
<g id="a_node2"><a xlink:href="class_c_m_u462_1_1_static_scene_1_1_b_r_d_f.html" target="_top" xlink:title="Interface for BRDFs. ">
<polygon fill="white" stroke="black" points="0,-67.5 0,-97.5 104,-97.5 104,-67.5 0,-67.5"/>
<text text-anchor="start" x="8" y="-85.5" font-family="Calibri" font-size="10.00">CMU462::StaticScene</text>
<text text-anchor="middle" x="52" y="-74.5" font-family="Calibri" font-size="10.00">::BRDF</text>
</a>
</g>
</g>
<!-- Node2&#45;&gt;Node1 -->
<g id="edge1" class="edge"><title>Node2&#45;&gt;Node1</title>
<path fill="none" stroke="midnightblue" d="M52,-57.1081C52,-48.1539 52,-38.3227 52,-30.5765"/>
<polygon fill="midnightblue" stroke="midnightblue" points="48.5001,-57.3959 52,-67.396 55.5001,-57.396 48.5001,-57.3959"/>
</g>
</g>
</svg>
