<?xml version="1.0" encoding="UTF-8" standalone="no"?>
<!DOCTYPE svg PUBLIC "-//W3C//DTD SVG 1.1//EN"
 "http://www.w3.org/Graphics/SVG/1.1/DTD/svg11.dtd">
<!-- Generated by graphviz version 2.38.0 (20140413.2041)
 -->
<!-- Title: Graphical Class Hierarchy Pages: 1 -->
<svg width="252pt" height="137pt"
 viewBox="0.00 0.00 252.00 137.00" xmlns="http://www.w3.org/2000/svg" xmlns:xlink="http://www.w3.org/1999/xlink">
<g id="graph0" class="graph" transform="scale(1 1) rotate(0) translate(4 133)">
<title>Graphical Class Hierarchy</title>
<polygon fill="white" stroke="none" points="-4,4 -4,-133 248,-133 248,4 -4,4"/>
<!-- Node1 -->
<g id="node1" class="node"><title>Node1</title>
<g id="a_node1"><a xlink:href="class_c_m_u462_1_1_static_scene_1_1_b_r_d_f.html" target="_top" xlink:title="Interface for BRDFs. ">
<polygon fill="white" stroke="black" points="0,-49.5 0,-79.5 104,-79.5 104,-49.5 0,-49.5"/>
<text text-anchor="start" x="8" y="-67.5" font-family="Calibri" font-size="10.00">CMU462::StaticScene</text>
<text text-anchor="middle" x="52" y="-56.5" font-family="Calibri" font-size="10.00">::BRDF</text>
</a>
</g>
</g>
<!-- Node2 -->
<g id="node2" class="node"><title>Node2</title>
<g id="a_node2"><a xlink:href="class_c_m_u462_1_1_static_scene_1_1_diffuse_b_r_d_f.html" target="_top" xlink:title="Diffuse BRDF. ">
<polygon fill="white" stroke="black" points="140,-98.5 140,-128.5 244,-128.5 244,-98.5 140,-98.5"/>
<text text-anchor="start" x="148" y="-116.5" font-family="Calibri" font-size="10.00">CMU462::StaticScene</text>
<text text-anchor="middle" x="192" y="-105.5" font-family="Calibri" font-size="10.00">::DiffuseBRDF</text>
</a>
</g>
</g>
<!-- Node1&#45;&gt;Node2 -->
<g id="edge1" class="edge"><title>Node1&#45;&gt;Node2</title>
<path fill="none" stroke="midnightblue" d="M105.202,-83.0355C119.454,-88.0959 134.723,-93.5177 148.372,-98.3641"/>
<polygon fill="midnightblue" stroke="midnightblue" points="106.125,-79.6493 95.5306,-79.6014 103.783,-86.2458 106.125,-79.6493"/>
</g>
<!-- Node3 -->
<g id="node3" class="node"><title>Node3</title>
<g id="a_node3"><a xlink:href="class_c_m_u462_1_1_static_scene_1_1_glossy_b_r_d_f.html" target="_top" xlink:title="Glossy BRDF. ">
<polygon fill="white" stroke="black" points="140,-49.5 140,-79.5 244,-79.5 244,-49.5 140,-49.5"/>
<text text-anchor="start" x="148" y="-67.5" font-family="Calibri" font-size="10.00">CMU462::StaticScene</text>
<text text-anchor="middle" x="192" y="-56.5" font-family="Calibri" font-size="10.00">::GlossyBRDF</text>
</a>
</g>
</g>
<!-- Node1&#45;&gt;Node3 -->
<g id="edge2" class="edge"><title>Node1&#45;&gt;Node3</title>
<path fill="none" stroke="midnightblue" d="M114.496,-64.5C122.872,-64.5 131.398,-64.5 139.571,-64.5"/>
<polygon fill="midnightblue" stroke="midnightblue" points="114.386,-61.0001 104.386,-64.5 114.386,-68.0001 114.386,-61.0001"/>
</g>
<!-- Node4 -->
<g id="node4" class="node"><title>Node4</title>
<g id="a_node4"><a xlink:href="class_c_m_u462_1_1_static_scene_1_1_refract_b_r_d_f.html" target="_top" xlink:title="Refractive BRDF. ">
<polygon fill="white" stroke="black" points="140,-0.5 140,-30.5 244,-30.5 244,-0.5 140,-0.5"/>
<text text-anchor="start" x="148" y="-18.5" font-family="Calibri" font-size="10.00">CMU462::StaticScene</text>
<text text-anchor="middle" x="192" y="-7.5" font-family="Calibri" font-size="10.00">::RefractBRDF</text>
</a>
</g>
</g>
<!-- Node1&#45;&gt;Node4 -->
<g id="edge3" class="edge"><title>Node1&#45;&gt;Node4</title>
<path fill="none" stroke="midnightblue" d="M105.202,-45.9645C119.454,-40.9041 134.723,-35.4823 148.372,-30.6359"/>
<polygon fill="midnightblue" stroke="midnightblue" points="103.783,-42.7542 95.5306,-49.3986 106.125,-49.3507 103.783,-42.7542"/>
</g>
</g>
</svg>
