<?xml version="1.0" encoding="UTF-8" standalone="no"?>
<!DOCTYPE svg PUBLIC "-//W3C//DTD SVG 1.1//EN"
 "http://www.w3.org/Graphics/SVG/1.1/DTD/svg11.dtd">
<!-- Generated by graphviz version 2.38.0 (20140413.2041)
 -->
<!-- Title: Graphical Class Hierarchy Pages: 1 -->
<svg width="265pt" height="104pt"
 viewBox="0.00 0.00 265.00 104.00" xmlns="http://www.w3.org/2000/svg" xmlns:xlink="http://www.w3.org/1999/xlink">
<g id="graph0" class="graph" transform="scale(1 1) rotate(0) translate(4 100)">
<title>Graphical Class Hierarchy</title>
<polygon fill="white" stroke="none" points="-4,4 -4,-100 261,-100 261,4 -4,4"/>
<!-- Node1 -->
<g id="node1" class="node"><title>Node1</title>
<g id="a_node1"><a xlink:href="class_c_m_u462_1_1_halfedge_element.html" target="_top" xlink:title="HalfedgeElement is the base type for all mesh elements (halfedges, vertices, edges, and faces). ">
<polygon fill="white" stroke="black" points="0,-38.5 0,-57.5 127,-57.5 127,-38.5 0,-38.5"/>
<text text-anchor="middle" x="63.5" y="-45.5" font-family="Calibri" font-size="10.00">CMU462::HalfedgeElement</text>
</a>
</g>
</g>
<!-- Node2 -->
<g id="node2" class="node"><title>Node2</title>
<g id="a_node2"><a xlink:href="class_c_m_u462_1_1_face.html" target="_top" xlink:title="A Face is a single polygon in the mesh. ">
<polygon fill="white" stroke="black" points="172,-76.5 172,-95.5 248,-95.5 248,-76.5 172,-76.5"/>
<text text-anchor="middle" x="210" y="-83.5" font-family="Calibri" font-size="10.00">CMU462::Face</text>
</a>
</g>
</g>
<!-- Node1&#45;&gt;Node2 -->
<g id="edge1" class="edge"><title>Node1&#45;&gt;Node2</title>
<path fill="none" stroke="midnightblue" d="M110.833,-60.1843C130.894,-65.46 154.029,-71.5438 172.799,-76.4799"/>
<polygon fill="midnightblue" stroke="midnightblue" points="111.525,-56.7474 100.963,-57.589 109.744,-63.5173 111.525,-56.7474"/>
</g>
<!-- Node3 -->
<g id="node3" class="node"><title>Node3</title>
<g id="a_node3"><a xlink:href="class_c_m_u462_1_1_halfedge.html" target="_top" xlink:title="A Halfedge is the basic &quot;glue&quot; between mesh elements, pointing to its associated vertex, edge, and face, as will as its twin and next halfedges. ">
<polygon fill="white" stroke="black" points="163,-38.5 163,-57.5 257,-57.5 257,-38.5 163,-38.5"/>
<text text-anchor="middle" x="210" y="-45.5" font-family="Calibri" font-size="10.00">CMU462::Halfedge</text>
</a>
</g>
</g>
<!-- Node1&#45;&gt;Node3 -->
<g id="edge2" class="edge"><title>Node1&#45;&gt;Node3</title>
<path fill="none" stroke="midnightblue" d="M137.264,-48C145.997,-48 154.719,-48 162.921,-48"/>
<polygon fill="midnightblue" stroke="midnightblue" points="137.039,-44.5001 127.039,-48 137.039,-51.5001 137.039,-44.5001"/>
</g>
<!-- Node4 -->
<g id="node4" class="node"><title>Node4</title>
<g id="a_node4"><a xlink:href="class_c_m_u462_1_1_vertex.html" target="_top" xlink:title="A Vertex encodes one of the mesh vertices. ">
<polygon fill="white" stroke="black" points="168,-0.5 168,-19.5 252,-19.5 252,-0.5 168,-0.5"/>
<text text-anchor="middle" x="210" y="-7.5" font-family="Calibri" font-size="10.00">CMU462::Vertex</text>
</a>
</g>
</g>
<!-- Node1&#45;&gt;Node4 -->
<g id="edge3" class="edge"><title>Node1&#45;&gt;Node4</title>
<path fill="none" stroke="midnightblue" d="M110.833,-35.8157C130.894,-30.54 154.029,-24.4562 172.799,-19.5201"/>
<polygon fill="midnightblue" stroke="midnightblue" points="109.744,-32.4827 100.963,-38.411 111.525,-39.2526 109.744,-32.4827"/>
</g>
</g>
</svg>
