<?xml version="1.0" encoding="UTF-8" standalone="no"?>
<!DOCTYPE svg PUBLIC "-//W3C//DTD SVG 1.1//EN"
 "http://www.w3.org/Graphics/SVG/1.1/DTD/svg11.dtd">
<!-- Generated by graphviz version 2.38.0 (20140413.2041)
 -->
<!-- Title: Graphical Class Hierarchy Pages: 1 -->
<svg width="252pt" height="88pt"
 viewBox="0.00 0.00 252.00 88.00" xmlns="http://www.w3.org/2000/svg" xmlns:xlink="http://www.w3.org/1999/xlink">
<g id="graph0" class="graph" transform="scale(1 1) rotate(0) translate(4 84)">
<title>Graphical Class Hierarchy</title>
<polygon fill="white" stroke="none" points="-4,4 -4,-84 248,-84 248,4 -4,4"/>
<!-- Node1 -->
<g id="node1" class="node"><title>Node1</title>
<g id="a_node1"><a xlink:href="class_c_m_u462_1_1_static_scene_1_1_scene_object.html" target="_top" xlink:title="Interface for objects in the scene. ">
<polygon fill="white" stroke="black" points="0,-24.5 0,-54.5 104,-54.5 104,-24.5 0,-24.5"/>
<text text-anchor="start" x="8" y="-42.5" font-family="Calibri" font-size="10.00">CMU462::StaticScene</text>
<text text-anchor="middle" x="52" y="-31.5" font-family="Calibri" font-size="10.00">::SceneObject</text>
</a>
</g>
</g>
<!-- Node2 -->
<g id="node2" class="node"><title>Node2</title>
<g id="a_node2"><a xlink:href="class_c_m_u462_1_1_static_scene_1_1_mesh.html" target="_top" xlink:title="A triangle mesh object. ">
<polygon fill="white" stroke="black" points="140,-49.5 140,-79.5 244,-79.5 244,-49.5 140,-49.5"/>
<text text-anchor="start" x="148" y="-67.5" font-family="Calibri" font-size="10.00">CMU462::StaticScene</text>
<text text-anchor="middle" x="192" y="-56.5" font-family="Calibri" font-size="10.00">::Mesh</text>
</a>
</g>
</g>
<!-- Node1&#45;&gt;Node2 -->
<g id="edge1" class="edge"><title>Node1&#45;&gt;Node2</title>
<path fill="none" stroke="midnightblue" d="M114.496,-50.6405C122.872,-52.158 131.398,-53.7025 139.571,-55.1831"/>
<polygon fill="midnightblue" stroke="midnightblue" points="114.85,-47.1478 104.386,-48.8091 113.602,-54.0357 114.85,-47.1478"/>
</g>
<!-- Node3 -->
<g id="node3" class="node"><title>Node3</title>
<g id="a_node3"><a xlink:href="class_c_m_u462_1_1_static_scene_1_1_sphere_object.html" target="_top" xlink:title="A sphere object. ">
<polygon fill="white" stroke="black" points="140,-0.5 140,-30.5 244,-30.5 244,-0.5 140,-0.5"/>
<text text-anchor="start" x="148" y="-18.5" font-family="Calibri" font-size="10.00">CMU462::StaticScene</text>
<text text-anchor="middle" x="192" y="-7.5" font-family="Calibri" font-size="10.00">::SphereObject</text>
</a>
</g>
</g>
<!-- Node1&#45;&gt;Node3 -->
<g id="edge2" class="edge"><title>Node1&#45;&gt;Node3</title>
<path fill="none" stroke="midnightblue" d="M114.496,-28.8051C122.872,-27.3483 131.398,-25.8656 139.571,-24.4442"/>
<polygon fill="midnightblue" stroke="midnightblue" points="113.639,-25.4016 104.386,-30.5633 114.838,-32.298 113.639,-25.4016"/>
</g>
</g>
</svg>
