<?xml version="1.0" encoding="UTF-8" standalone="no"?>
<!DOCTYPE svg PUBLIC "-//W3C//DTD SVG 1.1//EN"
 "http://www.w3.org/Graphics/SVG/1.1/DTD/svg11.dtd">
<!-- Generated by graphviz version 2.38.0 (20140413.2041)
 -->
<!-- Title: CMU462::StaticScene::BVHNode Pages: 1 -->
<svg width="135pt" height="106pt"
 viewBox="0.00 0.00 135.00 106.00" xmlns="http://www.w3.org/2000/svg" xmlns:xlink="http://www.w3.org/1999/xlink">
<g id="graph0" class="graph" transform="scale(1 1) rotate(0) translate(4 102)">
<title>CMU462::StaticScene::BVHNode</title>
<polygon fill="white" stroke="none" points="-4,4 -4,-102 131,-102 131,4 -4,4"/>
<!-- Node1 -->
<g id="node1" class="node"><title>Node1</title>
<polygon fill="#bfbfbf" stroke="black" points="0,-0.5 0,-30.5 104,-30.5 104,-0.5 0,-0.5"/>
<text text-anchor="start" x="8" y="-18.5" font-family="Calibri" font-size="10.00">CMU462::StaticScene</text>
<text text-anchor="middle" x="52" y="-7.5" font-family="Calibri" font-size="10.00">::BVHNode</text>
</g>
<!-- Node1&#45;&gt;Node1 -->
<g id="edge1" class="edge"><title>Node1&#45;&gt;Node1</title>
<path fill="none" stroke="#9a32cd" stroke-dasharray="5,2" d="M114.399,-20.8298C119.106,-19.6423 122,-17.8657 122,-15.5 122,-11.7148 114.592,-9.43784 104.202,-8.66898"/>
<polygon fill="#9a32cd" stroke="#9a32cd" points="113.586,-17.4117 104.202,-22.331 114.606,-24.3371 113.586,-17.4117"/>
<text text-anchor="middle" x="124.5" y="-18.5" font-family="Calibri" font-size="10.00"> l</text>
<text text-anchor="middle" x="124.5" y="-7.5" font-family="Calibri" font-size="10.00">r</text>
</g>
<!-- Node2 -->
<g id="node2" class="node"><title>Node2</title>
<g id="a_node2"><a xlink:href="struct_c_m_u462_1_1_b_box.html" target="_top" xlink:title="Axis&#45;aligned bounding box. ">
<polygon fill="white" stroke="black" points="13,-78.5 13,-97.5 91,-97.5 91,-78.5 13,-78.5"/>
<text text-anchor="middle" x="52" y="-85.5" font-family="Calibri" font-size="10.00">CMU462::BBox</text>
</a>
</g>
</g>
<!-- Node2&#45;&gt;Node1 -->
<g id="edge2" class="edge"><title>Node2&#45;&gt;Node1</title>
<path fill="none" stroke="#9a32cd" stroke-dasharray="5,2" d="M52,-68.2362C52,-56.4079 52,-41.3829 52,-30.5762"/>
<polygon fill="#9a32cd" stroke="#9a32cd" points="48.5001,-68.3553 52,-78.3553 55.5001,-68.3554 48.5001,-68.3553"/>
<text text-anchor="middle" x="58.5" y="-52" font-family="Calibri" font-size="10.00"> bb</text>
</g>
</g>
</svg>
