<?xml version="1.0" encoding="UTF-8" standalone="no"?>
<!DOCTYPE svg PUBLIC "-//W3C//DTD SVG 1.1//EN"
 "http://www.w3.org/Graphics/SVG/1.1/DTD/svg11.dtd">
<!-- Generated by graphviz version 2.38.0 (20140413.2041)
 -->
<!-- Title: CMU462::StaticScene::Intersection Pages: 1 -->
<svg width="234pt" height="117pt"
 viewBox="0.00 0.00 234.00 117.00" xmlns="http://www.w3.org/2000/svg" xmlns:xlink="http://www.w3.org/1999/xlink">
<g id="graph0" class="graph" transform="scale(1 1) rotate(0) translate(4 113)">
<title>CMU462::StaticScene::Intersection</title>
<polygon fill="white" stroke="none" points="-4,4 -4,-113 230,-113 230,4 -4,4"/>
<!-- Node1 -->
<g id="node1" class="node"><title>Node1</title>
<polygon fill="#bfbfbf" stroke="black" points="61,-0.5 61,-30.5 165,-30.5 165,-0.5 61,-0.5"/>
<text text-anchor="start" x="69" y="-18.5" font-family="Calibri" font-size="10.00">CMU462::StaticScene</text>
<text text-anchor="middle" x="113" y="-7.5" font-family="Calibri" font-size="10.00">::Intersection</text>
</g>
<!-- Node2 -->
<g id="node2" class="node"><title>Node2</title>
<g id="a_node2"><a xlink:href="class_c_m_u462_1_1_static_scene_1_1_primitive.html" target="_top" xlink:title="The abstract base class primitive is the bridge between geometry processing and the shading subsystem...">
<polygon fill="white" stroke="black" points="0,-78.5 0,-108.5 104,-108.5 104,-78.5 0,-78.5"/>
<text text-anchor="start" x="8" y="-96.5" font-family="Calibri" font-size="10.00">CMU462::StaticScene</text>
<text text-anchor="middle" x="52" y="-85.5" font-family="Calibri" font-size="10.00">::Primitive</text>
</a>
</g>
</g>
<!-- Node2&#45;&gt;Node1 -->
<g id="edge1" class="edge"><title>Node2&#45;&gt;Node1</title>
<path fill="none" stroke="#9a32cd" stroke-dasharray="5,2" d="M69.8132,-70.3065C80.0657,-57.5329 92.6456,-41.8596 101.578,-30.7309"/>
<polygon fill="#9a32cd" stroke="#9a32cd" points="67.0036,-68.2155 63.4736,-78.205 72.4627,-72.5971 67.0036,-68.2155"/>
<text text-anchor="middle" x="106.5" y="-52" font-family="Calibri" font-size="10.00"> primitive</text>
</g>
<!-- Node3 -->
<g id="node3" class="node"><title>Node3</title>
<g id="a_node3"><a xlink:href="class_c_m_u462_1_1_static_scene_1_1_b_r_d_f.html" target="_top" xlink:title="Interface for BRDFs. ">
<polygon fill="white" stroke="black" points="122,-78.5 122,-108.5 226,-108.5 226,-78.5 122,-78.5"/>
<text text-anchor="start" x="130" y="-96.5" font-family="Calibri" font-size="10.00">CMU462::StaticScene</text>
<text text-anchor="middle" x="174" y="-85.5" font-family="Calibri" font-size="10.00">::BRDF</text>
</a>
</g>
</g>
<!-- Node3&#45;&gt;Node1 -->
<g id="edge2" class="edge"><title>Node3&#45;&gt;Node1</title>
<path fill="none" stroke="#9a32cd" stroke-dasharray="5,2" d="M156.187,-70.3065C145.934,-57.5329 133.354,-41.8596 124.422,-30.7309"/>
<polygon fill="#9a32cd" stroke="#9a32cd" points="153.537,-72.5971 162.526,-78.205 158.996,-68.2155 153.537,-72.5971"/>
<text text-anchor="middle" x="157" y="-52" font-family="Calibri" font-size="10.00"> brdf</text>
</g>
</g>
</svg>
